<svg width="18.75" height="15" viewBox="0 0 24 18" fill="none" xmlns="http://www.w3.org/2000/svg">
<path d="M3.75 0C3.33579 0 3 0.335786 3 0.75V2.74219L0.890625 5.55469L0.75 5.74219V6C0.75 7.23409 1.76591 8.25 3 8.25V17.25C3 17.6642 3.33579 18 3.75 18H14.25C14.6642 18 15 17.6642 15 17.25V11.25H16.5V17.25C16.5 17.6642 16.8358 18 17.25 18H20.25C20.6642 18 21 17.6642 21 17.25V8.25C22.2341 8.25 23.25 7.23409 23.25 6V5.74219L23.1094 5.55469L21 2.74219V0.75C21 0.335786 20.6642 0 20.25 0H3.75ZM4.5 1.5H19.5V2.25H4.5V1.5ZM4.125 3.75H19.875L21.6797 6.16406C21.5977 6.48948 21.3518 6.75 21 6.75C20.7597 6.75 20.5467 6.63848 20.4097 6.4641C20.2391 6.24697 20.0261 6 19.75 6H19.25C18.9739 6 18.7609 6.24696 18.5903 6.4641C18.4533 6.63848 18.2403 6.75 18 6.75C17.7597 6.75 17.5467 6.63848 17.4097 6.4641C17.2391 6.24697 17.0261 6 16.75 6H16.25C15.9739 6 15.7609 6.24696 15.5903 6.4641C15.4533 6.63848 15.2403 6.75 15 6.75C14.7597 6.75 14.5467 6.63848 14.4097 6.4641C14.2391 6.24697 14.0261 6 13.75 6H13.25C12.9739 6 12.7609 6.24696 12.5903 6.4641C12.4533 6.63848 12.2403 6.75 12 6.75C11.7597 6.75 11.5467 6.63848 11.4097 6.4641C11.2391 6.24697 11.0261 6 10.75 6H10.25C9.97386 6 9.7609 6.24696 9.59029 6.4641C9.45327 6.63848 9.24029 6.75 9 6.75C8.75971 6.75 8.54673 6.63848 8.40971 6.4641C8.2391 6.24697 8.02614 6 7.75 6H7.25C6.97386 6 6.7609 6.24697 6.59029 6.4641C6.45327 6.63848 6.24029 6.75 6 6.75C5.75971 6.75 5.54673 6.63848 5.40971 6.4641C5.2391 6.24696 5.02614 6 4.75 6H4.25C3.97386 6 3.7609 6.24697 3.59029 6.4641C3.45327 6.63848 3.24029 6.75 3 6.75C2.64818 6.75 2.40234 6.48948 2.32031 6.16406L4.125 3.75ZM4.5 7.66406C4.89966 8.0248 5.4247 8.25 6 8.25C6.41484 8.25 6.80354 8.13291 7.13795 7.93234C7.35781 7.80047 7.64219 7.80047 7.86205 7.93234C8.19646 8.13291 8.58516 8.25 9 8.25C9.41484 8.25 9.80354 8.13291 10.1379 7.93234C10.3578 7.80047 10.6422 7.80047 10.8621 7.93234C11.1965 8.13291 11.5852 8.25 12 8.25C12.4148 8.25 12.8035 8.13291 13.1379 7.93234C13.3578 7.80047 13.6422 7.80047 13.8621 7.93234C14.1965 8.13291 14.5852 8.25 15 8.25C15.4148 8.25 15.8035 8.13291 16.1379 7.93234C16.3578 7.80047 16.6422 7.80047 16.8621 7.93234C17.1965 8.13291 17.5852 8.25 18 8.25C18.5753 8.25 19.1003 8.0248 19.5 7.66406V16.5H18V10.5C18 10.0858 17.6642 9.75 17.25 9.75H14.25C13.8358 9.75 13.5 10.0858 13.5 10.5V16.5H4.5V7.66406ZM6.75 9.75C6.33579 9.75 6 10.0858 6 10.5V14.25C6 14.6642 6.33579 15 6.75 15H11.25C11.6642 15 12 14.6642 12 14.25V10.5C12 10.0858 11.6642 9.75 11.25 9.75H6.75ZM7.5 11.25H10.5V13.5H7.5V11.25Z" fill="black"/>
</svg>
