<svg width="15.63" height="16.25" viewBox="0 0 19 20" fill="none" xmlns="http://www.w3.org/2000/svg">
<path d="M9 0.25C4.46591 0.25 0.75 3.96591 0.75 8.5V9.64844C0.296331 10.1356 0 10.773 0 11.5C0 12.6959 0.77087 13.6056 1.78125 14.1016C2.63254 17.3013 5.51555 19.75 9 19.75C11.4539 19.75 13.6226 18.6016 14.9766 16.75H15C16.4502 16.75 17.65 15.7267 17.9297 14.3594C18.0775 14.2914 18.212 14.1943 18.3281 14.0781C18.6109 13.7954 18.75 13.3917 18.75 13V9.25C18.75 8.85833 18.6109 8.45465 18.3281 8.17188C18.0454 7.8891 17.6417 7.75 17.25 7.75H17.2031C16.8215 3.56224 13.2821 0.25 9 0.25ZM9 1.75C12.2748 1.75 15.0037 4.10808 15.6094 7.21094C15.4732 7.15947 15.3372 7.12392 15.2109 7.09375C14.6783 6.96651 14.1625 6.93125 13.6875 6.8125C13.2125 6.69375 12.8299 6.52304 12.5391 6.15625C12.2482 5.78946 12 5.16471 12 4H10.5C10.5 5.47955 10.0763 6.07444 9.44531 6.46094C8.8143 6.84743 7.81305 6.97737 6.72656 7C5.64008 7.02263 4.52119 6.93812 3.51562 7.14062C3.09129 7.22608 2.65773 7.36043 2.29688 7.63281C2.72776 4.32634 5.57989 1.75 9 1.75ZM11.2031 6.83594C11.258 6.92016 11.3065 7.01718 11.3672 7.09375C11.9201 7.79103 12.6625 8.10312 13.3125 8.26562C13.9625 8.42813 14.5717 8.47255 14.8828 8.54688C14.9808 8.57029 14.9761 8.57984 15 8.59375V13.75V14.5H15.75H16.3125C16.0708 14.9612 15.6076 15.25 15 15.25H10.4297C10.2768 14.8102 9.86688 14.5 9.375 14.5C8.75368 14.5 8.25 15.0037 8.25 15.625C8.25 16.2463 8.75368 16.75 9.375 16.75H12.9844C11.9415 17.6929 10.5503 18.25 9 18.25C6.13547 18.25 3.73982 16.1787 3.14062 13.5156L3.04688 13.0938L2.625 12.9531C1.9264 12.7382 1.5 12.2286 1.5 11.5C1.5 10.8712 2.00212 10.2359 2.4375 10.1172L3 9.97656V9.39062C3 9.05956 3.06701 8.97027 3.16406 8.875C3.26112 8.77973 3.45591 8.68585 3.79688 8.61719C4.47881 8.47985 5.60992 8.52424 6.77344 8.5C7.93695 8.47576 9.1857 8.37366 10.2422 7.72656C10.6064 7.5035 10.9375 7.20235 11.2031 6.83594ZM16.5 9.25H17.25V13H16.5V9.25ZM6.375 10C5.75368 10 5.25 10.5037 5.25 11.125C5.25 11.7463 5.75368 12.25 6.375 12.25C6.99632 12.25 7.5 11.7463 7.5 11.125C7.5 10.5037 6.99632 10 6.375 10ZM11.625 10C11.0037 10 10.5 10.5037 10.5 11.125C10.5 11.7463 11.0037 12.25 11.625 12.25C12.2463 12.25 12.75 11.7463 12.75 11.125C12.75 10.5037 12.2463 10 11.625 10Z" fill="black"/>
</svg>
