<svg width="12.5" height="16.25" viewBox="0 0 16 20" fill="none" xmlns="http://www.w3.org/2000/svg">
<path d="M1.25 0.25C0.835786 0.25 0.5 0.585786 0.5 1V19C0.5 19.4142 0.835786 19.75 1.25 19.75H14.75C15.1642 19.75 15.5 19.4142 15.5 19V5.5C15.5 5.30385 15.4274 5.11464 15.2962 4.96884L15.2891 4.96094L10.7891 0.460938L10.7812 0.453825C10.6354 0.322606 10.4462 0.25 10.25 0.25H1.25ZM2 1.75H9.5V5.5C9.5 5.91421 9.83579 6.25 10.25 6.25H14V18.25H2V1.75ZM11 2.82812L12.9219 4.75H11V2.82812ZM5 7.75C4.58579 7.75 4.25 8.08579 4.25 8.5C4.25 8.91421 4.58579 9.25 5 9.25H11C11.4142 9.25 11.75 8.91421 11.75 8.5C11.75 8.08579 11.4142 7.75 11 7.75H5ZM5 10.75C4.58579 10.75 4.25 11.0858 4.25 11.5C4.25 11.9142 4.58579 12.25 5 12.25H11C11.4142 12.25 11.75 11.9142 11.75 11.5C11.75 11.0858 11.4142 10.75 11 10.75H5ZM5 13.75C4.58579 13.75 4.25 14.0858 4.25 14.5C4.25 14.9142 4.58579 15.25 5 15.25H11C11.4142 15.25 11.75 14.9142 11.75 14.5C11.75 14.0858 11.4142 13.75 11 13.75H5Z" fill="black"/>
</svg>
